<?xml version="1.0" encoding="utf-8" standalone="no"?>
<!DOCTYPE svg PUBLIC "-//W3C//DTD SVG 1.1//EN"
  "http://www.w3.org/Graphics/SVG/1.1/DTD/svg11.dtd">
<svg xmlns:xlink="http://www.w3.org/1999/xlink" width="432pt" height="288pt" viewBox="0 0 432 288" xmlns="http://www.w3.org/2000/svg" version="1.1">
 <metadata>
  <rdf:RDF xmlns:dc="http://purl.org/dc/elements/1.1/" xmlns:cc="http://creativecommons.org/ns#" xmlns:rdf="http://www.w3.org/1999/02/22-rdf-syntax-ns#">
   <cc:Work>
    <dc:type rdf:resource="http://purl.org/dc/dcmitype/StillImage"/>
    <dc:date>2023-02-02T18:02:30.108789</dc:date>
    <dc:format>image/svg+xml</dc:format>
    <dc:creator>
     <cc:Agent>
      <dc:title>Matplotlib v3.5.1, https://matplotlib.org/</dc:title>
     </cc:Agent>
    </dc:creator>
   </cc:Work>
  </rdf:RDF>
 </metadata>
 <defs>
  <style type="text/css">*{stroke-linejoin: round; stroke-linecap: butt}</style>
 </defs>
 <g id="figure_1">
  <g id="patch_1">
   <path d="M 0 288 
L 432 288 
L 432 0 
L 0 0 
z
" style="fill: #ffffff"/>
  </g>
  <g id="axes_1">
   <g id="patch_2">
    <path d="M 54 252 
L 388.8 252 
L 388.8 34.56 
L 54 34.56 
z
" style="fill: #ffffff"/>
   </g>
   <g id="PolyCollection_1">
    <defs>
     <path id="md188ba1958" d="M 54 -180.708635 
L 54 -216.992151 
L 55.674 -216.218323 
L 57.348 -215.447384 
L 59.022 -214.679323 
L 60.696 -213.91413 
L 62.37 -213.151794 
L 64.044 -212.392305 
L 65.718 -211.635652 
L 67.392 -210.881823 
L 69.066 -210.13081 
L 70.74 -209.382601 
L 72.414 -208.637186 
L 74.088 -207.894555 
L 75.762 -207.154697 
L 77.436 -206.417603 
L 79.11 -205.683261 
L 80.784 -204.951661 
L 82.458 -204.222794 
L 84.132 -203.496649 
L 85.806 -202.773216 
L 87.48 -202.052486 
L 89.154 -201.334447 
L 90.828 -200.61909 
L 92.502 -199.906405 
L 94.176 -199.196382 
L 95.85 -198.489012 
L 97.524 -197.784284 
L 99.198 -197.082188 
L 100.872 -196.382715 
L 102.546 -195.685855 
L 104.22 -194.991598 
L 105.894 -194.299935 
L 107.568 -193.610855 
L 109.242 -192.92435 
L 110.916 -192.24041 
L 112.59 -191.559024 
L 114.264 -190.880185 
L 115.938 -190.203881 
L 117.612 -189.530104 
L 119.286 -188.858845 
L 120.96 -188.190093 
L 122.634 -187.52384 
L 124.308 -186.860077 
L 125.982 -186.198793 
L 127.656 -185.53998 
L 129.33 -184.883629 
L 131.004 -184.22973 
L 132.678 -183.578274 
L 134.352 -182.929253 
L 136.026 -182.282656 
L 137.7 -181.638476 
L 139.374 -180.996702 
L 141.048 -180.357327 
L 142.722 -179.720341 
L 144.396 -179.085734 
L 146.07 -178.453499 
L 147.744 -177.823627 
L 149.418 -177.196108 
L 151.092 -176.570934 
L 152.766 -175.948096 
L 154.44 -175.327586 
L 156.114 -174.709394 
L 157.788 -174.093512 
L 159.462 -173.479932 
L 161.136 -172.868645 
L 162.81 -172.259641 
L 164.484 -171.652914 
L 166.158 -171.048453 
L 167.832 -170.446252 
L 169.506 -169.8463 
L 171.18 -169.248591 
L 172.854 -168.653115 
L 174.528 -168.059864 
L 176.202 -167.46883 
L 177.876 -166.880005 
L 179.55 -166.29338 
L 181.224 -165.708947 
L 182.898 -165.126698 
L 184.572 -164.546624 
L 186.246 -163.968719 
L 187.92 -163.392972 
L 189.594 -162.819377 
L 191.268 -162.247926 
L 192.942 -161.67861 
L 194.616 -161.111421 
L 196.29 -160.546351 
L 197.964 -159.983393 
L 199.638 -159.422538 
L 201.312 -158.863779 
L 202.986 -158.307108 
L 204.66 -157.752517 
L 206.334 -157.199998 
L 208.008 -156.649544 
L 209.682 -156.101146 
L 211.356 -155.554797 
L 213.03 -155.01049 
L 214.704 -154.468216 
L 216.378 -153.927969 
L 218.052 -153.389739 
L 219.726 -152.853521 
L 221.4 -152.319307 
L 223.074 -151.787088 
L 224.748 -151.256857 
L 226.422 -150.728608 
L 228.096 -150.202331 
L 229.77 -149.678022 
L 231.444 -149.15567 
L 233.118 -148.635271 
L 234.792 -148.116815 
L 236.466 -147.600296 
L 238.14 -147.085707 
L 239.814 -146.57304 
L 241.488 -146.062288 
L 243.162 -145.553444 
L 244.836 -145.046501 
L 246.51 -144.541451 
L 248.184 -144.038288 
L 249.858 -143.537005 
L 251.532 -143.037593 
L 253.206 -142.540047 
L 254.88 -142.04436 
L 256.554 -141.550524 
L 258.228 -141.058532 
L 259.902 -140.568378 
L 261.576 -140.080055 
L 263.25 -139.593555 
L 264.924 -139.108872 
L 266.598 -138.625999 
L 268.272 -138.14493 
L 269.946 -137.665657 
L 271.62 -137.188174 
L 273.294 -136.712474 
L 274.968 -136.23855 
L 276.642 -135.766396 
L 278.316 -135.296005 
L 279.99 -134.82737 
L 281.664 -134.360486 
L 283.338 -133.895344 
L 285.012 -133.431939 
L 286.686 -132.970265 
L 288.36 -132.510314 
L 290.034 -132.05208 
L 291.708 -131.595557 
L 293.382 -131.140738 
L 295.056 -130.687618 
L 296.73 -130.236188 
L 298.404 -129.786444 
L 300.078 -129.338379 
L 301.752 -128.891987 
L 303.426 -128.44726 
L 305.1 -128.004194 
L 306.774 -127.562781 
L 308.448 -127.123016 
L 310.122 -126.684893 
L 311.796 -126.248404 
L 313.47 -125.813544 
L 315.144 -125.380308 
L 316.818 -124.948688 
L 318.492 -124.518679 
L 320.166 -124.090275 
L 321.84 -123.663469 
L 323.514 -123.238256 
L 325.188 -122.814629 
L 326.862 -122.392583 
L 328.536 -121.972112 
L 330.21 -121.55321 
L 331.884 -121.13587 
L 333.558 -120.720088 
L 335.232 -120.305857 
L 336.906 -119.893171 
L 338.58 -119.482025 
L 340.254 -119.072412 
L 341.928 -118.664328 
L 343.602 -118.257765 
L 345.276 -117.852719 
L 346.95 -117.449184 
L 348.624 -117.047154 
L 350.298 -116.646624 
L 351.972 -116.247587 
L 353.646 -115.850039 
L 355.32 -115.453973 
L 356.994 -115.059384 
L 358.668 -114.666266 
L 360.342 -114.274615 
L 362.016 -113.884424 
L 363.69 -113.495688 
L 365.364 -113.108401 
L 367.038 -112.722558 
L 368.712 -112.338154 
L 370.386 -111.955183 
L 372.06 -111.57364 
L 373.734 -111.193519 
L 375.408 -110.814815 
L 377.082 -110.437523 
L 378.756 -110.061637 
L 380.43 -109.687153 
L 382.104 -109.314064 
L 383.778 -108.942366 
L 385.452 -108.572053 
L 387.126 -108.20312 
L 388.8 -107.835563 
L 388.8 -78.390684 
L 388.8 -78.390684 
L 387.126 -78.741384 
L 385.452 -79.093345 
L 383.778 -79.446571 
L 382.104 -79.801067 
L 380.43 -80.156837 
L 378.756 -80.513886 
L 377.082 -80.872218 
L 375.408 -81.231838 
L 373.734 -81.59275 
L 372.06 -81.954959 
L 370.386 -82.31847 
L 368.712 -82.683288 
L 367.038 -83.049416 
L 365.364 -83.41686 
L 363.69 -83.785624 
L 362.016 -84.155713 
L 360.342 -84.527131 
L 358.668 -84.899884 
L 356.994 -85.273976 
L 355.32 -85.649412 
L 353.646 -86.026197 
L 351.972 -86.404335 
L 350.298 -86.783831 
L 348.624 -87.16469 
L 346.95 -87.546917 
L 345.276 -87.930517 
L 343.602 -88.315495 
L 341.928 -88.701855 
L 340.254 -89.089602 
L 338.58 -89.478742 
L 336.906 -89.869279 
L 335.232 -90.261219 
L 333.558 -90.654566 
L 331.884 -91.049325 
L 330.21 -91.445501 
L 328.536 -91.8431 
L 326.862 -92.242126 
L 325.188 -92.642585 
L 323.514 -93.044481 
L 321.84 -93.44782 
L 320.166 -93.852606 
L 318.492 -94.258846 
L 316.818 -94.666543 
L 315.144 -95.075704 
L 313.47 -95.486334 
L 311.796 -95.898437 
L 310.122 -96.312019 
L 308.448 -96.727085 
L 306.774 -97.143641 
L 305.1 -97.561692 
L 303.426 -97.981242 
L 301.752 -98.402298 
L 300.078 -98.824865 
L 298.404 -99.248948 
L 296.73 -99.674553 
L 295.056 -100.101684 
L 293.382 -100.530348 
L 291.708 -100.96055 
L 290.034 -101.392295 
L 288.36 -101.825589 
L 286.686 -102.260437 
L 285.012 -102.696845 
L 283.338 -103.134818 
L 281.664 -103.574363 
L 279.99 -104.015484 
L 278.316 -104.458187 
L 276.642 -104.902478 
L 274.968 -105.348362 
L 273.294 -105.795845 
L 271.62 -106.244933 
L 269.946 -106.695632 
L 268.272 -107.147947 
L 266.598 -107.601884 
L 264.924 -108.057449 
L 263.25 -108.514647 
L 261.576 -108.973485 
L 259.902 -109.433968 
L 258.228 -109.896102 
L 256.554 -110.359892 
L 254.88 -110.825346 
L 253.206 -111.292469 
L 251.532 -111.761266 
L 249.858 -112.231744 
L 248.184 -112.703908 
L 246.51 -113.177766 
L 244.836 -113.653322 
L 243.162 -114.130582 
L 241.488 -114.609554 
L 239.814 -115.090243 
L 238.14 -115.572654 
L 236.466 -116.056795 
L 234.792 -116.542671 
L 233.118 -117.030289 
L 231.444 -117.519654 
L 229.77 -118.010774 
L 228.096 -118.503653 
L 226.422 -118.998299 
L 224.748 -119.494718 
L 223.074 -119.992916 
L 221.4 -120.4929 
L 219.726 -120.994675 
L 218.052 -121.498249 
L 216.378 -122.003627 
L 214.704 -122.510817 
L 213.03 -123.019824 
L 211.356 -123.530655 
L 209.682 -124.043316 
L 208.008 -124.557815 
L 206.334 -125.074157 
L 204.66 -125.592349 
L 202.986 -126.112399 
L 201.312 -126.634311 
L 199.638 -127.158094 
L 197.964 -127.683754 
L 196.29 -128.211297 
L 194.616 -128.74073 
L 192.942 -129.272061 
L 191.268 -129.805295 
L 189.594 -130.34044 
L 187.92 -130.877502 
L 186.246 -131.416488 
L 184.572 -131.957405 
L 182.898 -132.500261 
L 181.224 -133.045061 
L 179.55 -133.591813 
L 177.876 -134.140524 
L 176.202 -134.691201 
L 174.528 -135.243851 
L 172.854 -135.798481 
L 171.18 -136.355098 
L 169.506 -136.913709 
L 167.832 -137.474321 
L 166.158 -138.036942 
L 164.484 -138.601578 
L 162.81 -139.168238 
L 161.136 -139.736927 
L 159.462 -140.307654 
L 157.788 -140.880425 
L 156.114 -141.455249 
L 154.44 -142.032132 
L 152.766 -142.611081 
L 151.092 -143.192105 
L 149.418 -143.77521 
L 147.744 -144.360404 
L 146.07 -144.947694 
L 144.396 -145.537089 
L 142.722 -146.128595 
L 141.048 -146.72222 
L 139.374 -147.317972 
L 137.7 -147.915859 
L 136.026 -148.515887 
L 134.352 -149.118065 
L 132.678 -149.722401 
L 131.004 -150.328901 
L 129.33 -150.937575 
L 127.656 -151.548429 
L 125.982 -152.161471 
L 124.308 -152.77671 
L 122.634 -153.394154 
L 120.96 -154.013809 
L 119.286 -154.635685 
L 117.612 -155.259789 
L 115.938 -155.886128 
L 114.264 -156.514712 
L 112.59 -157.145549 
L 110.916 -157.778645 
L 109.242 -158.41401 
L 107.568 -159.051651 
L 105.894 -159.691577 
L 104.22 -160.333797 
L 102.546 -160.978317 
L 100.872 -161.625147 
L 99.198 -162.274295 
L 97.524 -162.925768 
L 95.85 -163.579577 
L 94.176 -164.235728 
L 92.502 -164.894231 
L 90.828 -165.555093 
L 89.154 -166.218324 
L 87.48 -166.883931 
L 85.806 -167.551924 
L 84.132 -168.222311 
L 82.458 -168.895101 
L 80.784 -169.570301 
L 79.11 -170.247922 
L 77.436 -170.927971 
L 75.762 -171.610458 
L 74.088 -172.295391 
L 72.414 -172.982779 
L 70.74 -173.672631 
L 69.066 -174.364956 
L 67.392 -175.059762 
L 65.718 -175.757059 
L 64.044 -176.456856 
L 62.37 -177.159161 
L 60.696 -177.863984 
L 59.022 -178.571334 
L 57.348 -179.28122 
L 55.674 -179.99365 
L 54 -180.708635 
z
" style="stroke: #d3d3d3"/>
    </defs>
    <g clip-path="url(#paf7a37c0a2)">
     <use xlink:href="#md188ba1958" x="0" y="288" style="fill: #d3d3d3; stroke: #d3d3d3"/>
    </g>
   </g>
   <g id="PolyCollection_2">
    <defs>
     <path id="md8fdca9d18" d="M 54 -189.670947 
L 54 -208.029839 
L 55.674 -207.270545 
L 57.348 -206.514058 
L 59.022 -205.760368 
L 60.696 -205.009462 
L 62.37 -204.261333 
L 64.044 -203.515968 
L 65.718 -202.773359 
L 67.392 -202.033494 
L 69.066 -201.296364 
L 70.74 -200.561959 
L 72.414 -199.830269 
L 74.088 -199.101283 
L 75.762 -198.374992 
L 77.436 -197.651386 
L 79.11 -196.930455 
L 80.784 -196.212189 
L 82.458 -195.496578 
L 84.132 -194.783612 
L 85.806 -194.073282 
L 87.48 -193.365578 
L 89.154 -192.66049 
L 90.828 -191.958009 
L 92.502 -191.258124 
L 94.176 -190.560827 
L 95.85 -189.866108 
L 97.524 -189.173958 
L 99.198 -188.484366 
L 100.872 -187.797324 
L 102.546 -187.112822 
L 104.22 -186.43085 
L 105.894 -185.7514 
L 107.568 -185.074462 
L 109.242 -184.400026 
L 110.916 -183.728084 
L 112.59 -183.058627 
L 114.264 -182.391644 
L 115.938 -181.727128 
L 117.612 -181.065068 
L 119.286 -180.405457 
L 120.96 -179.748284 
L 122.634 -179.093541 
L 124.308 -178.441219 
L 125.982 -177.791309 
L 127.656 -177.143801 
L 129.33 -176.498688 
L 131.004 -175.85596 
L 132.678 -175.215609 
L 134.352 -174.577625 
L 136.026 -173.942 
L 137.7 -173.308726 
L 139.374 -172.677793 
L 141.048 -172.049193 
L 142.722 -171.422917 
L 144.396 -170.798957 
L 146.07 -170.177304 
L 147.744 -169.557949 
L 149.418 -168.940885 
L 151.092 -168.326102 
L 152.766 -167.713593 
L 154.44 -167.103348 
L 156.114 -166.49536 
L 157.788 -165.88962 
L 159.462 -165.28612 
L 161.136 -164.684851 
L 162.81 -164.085806 
L 164.484 -163.488975 
L 166.158 -162.894352 
L 167.832 -162.301927 
L 169.506 -161.711693 
L 171.18 -161.123641 
L 172.854 -160.537763 
L 174.528 -159.954052 
L 176.202 -159.3725 
L 177.876 -158.793097 
L 179.55 -158.215837 
L 181.224 -157.640712 
L 182.898 -157.067713 
L 184.572 -156.496833 
L 186.246 -155.928063 
L 187.92 -155.361397 
L 189.594 -154.796826 
L 191.268 -154.234342 
L 192.942 -153.673939 
L 194.616 -153.115607 
L 196.29 -152.55934 
L 197.964 -152.00513 
L 199.638 -151.452968 
L 201.312 -150.902849 
L 202.986 -150.354763 
L 204.66 -149.808704 
L 206.334 -149.264664 
L 208.008 -148.722636 
L 209.682 -148.182611 
L 211.356 -147.644584 
L 213.03 -147.108545 
L 214.704 -146.574489 
L 216.378 -146.042407 
L 218.052 -145.512292 
L 219.726 -144.984137 
L 221.4 -144.457935 
L 223.074 -143.933679 
L 224.748 -143.41136 
L 226.422 -142.890973 
L 228.096 -142.37251 
L 229.77 -141.855964 
L 231.444 -141.341327 
L 233.118 -140.828593 
L 234.792 -140.317755 
L 236.466 -139.808805 
L 238.14 -139.301737 
L 239.814 -138.796543 
L 241.488 -138.293217 
L 243.162 -137.791752 
L 244.836 -137.29214 
L 246.51 -136.794376 
L 248.184 -136.298451 
L 249.858 -135.80436 
L 251.532 -135.312096 
L 253.206 -134.821651 
L 254.88 -134.33302 
L 256.554 -133.846194 
L 258.228 -133.361168 
L 259.902 -132.877935 
L 261.576 -132.396489 
L 263.25 -131.916822 
L 264.924 -131.438928 
L 266.598 -130.9628 
L 268.272 -130.488433 
L 269.946 -130.015819 
L 271.62 -129.544952 
L 273.294 -129.075825 
L 274.968 -128.608432 
L 276.642 -128.142767 
L 278.316 -127.678823 
L 279.99 -127.216593 
L 281.664 -126.756073 
L 283.338 -126.297254 
L 285.012 -125.840131 
L 286.686 -125.384697 
L 288.36 -124.930947 
L 290.034 -124.478873 
L 291.708 -124.028471 
L 293.382 -123.579733 
L 295.056 -123.132653 
L 296.73 -122.687226 
L 298.404 -122.243444 
L 300.078 -121.801303 
L 301.752 -121.360795 
L 303.426 -120.921916 
L 305.1 -120.484658 
L 306.774 -120.049016 
L 308.448 -119.614984 
L 310.122 -119.182555 
L 311.796 -118.751725 
L 313.47 -118.322486 
L 315.144 -117.894834 
L 316.818 -117.468762 
L 318.492 -117.044264 
L 320.166 -116.621334 
L 321.84 -116.199967 
L 323.514 -115.780157 
L 325.188 -115.361898 
L 326.862 -114.945185 
L 328.536 -114.530011 
L 330.21 -114.11637 
L 331.884 -113.704258 
L 333.558 -113.293669 
L 335.232 -112.884596 
L 336.906 -112.477035 
L 338.58 -112.070979 
L 340.254 -111.666424 
L 341.928 -111.263363 
L 343.602 -110.86179 
L 345.276 -110.461701 
L 346.95 -110.063091 
L 348.624 -109.665952 
L 350.298 -109.270281 
L 351.972 -108.87607 
L 353.646 -108.483317 
L 355.32 -108.092013 
L 356.994 -107.702155 
L 358.668 -107.313737 
L 360.342 -106.926754 
L 362.016 -106.5412 
L 363.69 -106.15707 
L 365.364 -105.774358 
L 367.038 -105.39306 
L 368.712 -105.01317 
L 370.386 -104.634683 
L 372.06 -104.257594 
L 373.734 -103.881898 
L 375.408 -103.507589 
L 377.082 -103.134662 
L 378.756 -102.763112 
L 380.43 -102.392934 
L 382.104 -102.024123 
L 383.778 -101.656674 
L 385.452 -101.290582 
L 387.126 -100.925841 
L 388.8 -100.562447 
L 388.8 -85.663799 
L 388.8 -85.663799 
L 387.126 -86.018663 
L 385.452 -86.374816 
L 383.778 -86.732263 
L 382.104 -87.091008 
L 380.43 -87.451056 
L 378.756 -87.812411 
L 377.082 -88.175079 
L 375.408 -88.539064 
L 373.734 -88.904371 
L 372.06 -89.271005 
L 370.386 -89.63897 
L 368.712 -90.008272 
L 367.038 -90.378914 
L 365.364 -90.750903 
L 363.69 -91.124242 
L 362.016 -91.498937 
L 360.342 -91.874992 
L 358.668 -92.252413 
L 356.994 -92.631205 
L 355.32 -93.011372 
L 353.646 -93.392919 
L 351.972 -93.775851 
L 350.298 -94.160174 
L 348.624 -94.545892 
L 346.95 -94.933011 
L 345.276 -95.321535 
L 343.602 -95.71147 
L 341.928 -96.10282 
L 340.254 -96.495591 
L 338.58 -96.889788 
L 336.906 -97.285415 
L 335.232 -97.682479 
L 333.558 -98.080985 
L 331.884 -98.480937 
L 330.21 -98.882341 
L 328.536 -99.285201 
L 326.862 -99.689525 
L 325.188 -100.095315 
L 323.514 -100.502579 
L 321.84 -100.911321 
L 320.166 -101.321547 
L 318.492 -101.733261 
L 316.818 -102.14647 
L 315.144 -102.561178 
L 313.47 -102.977392 
L 311.796 -103.395116 
L 310.122 -103.814356 
L 308.448 -104.235118 
L 306.774 -104.657406 
L 305.1 -105.081228 
L 303.426 -105.506587 
L 301.752 -105.93349 
L 300.078 -106.361942 
L 298.404 -106.791948 
L 296.73 -107.223516 
L 295.056 -107.656649 
L 293.382 -108.091354 
L 291.708 -108.527636 
L 290.034 -108.965502 
L 288.36 -109.404956 
L 286.686 -109.846005 
L 285.012 -110.288654 
L 283.338 -110.732909 
L 281.664 -111.178776 
L 279.99 -111.626261 
L 278.316 -112.075369 
L 276.642 -112.526107 
L 274.968 -112.97848 
L 273.294 -113.432494 
L 271.62 -113.888156 
L 269.946 -114.34547 
L 268.272 -114.804444 
L 266.598 -115.265083 
L 264.924 -115.727393 
L 263.25 -116.19138 
L 261.576 -116.657051 
L 259.902 -117.12441 
L 258.228 -117.593466 
L 256.554 -118.064222 
L 254.88 -118.536687 
L 253.206 -119.010865 
L 251.532 -119.486763 
L 249.858 -119.964388 
L 248.184 -120.443745 
L 246.51 -120.924841 
L 244.836 -121.407682 
L 243.162 -121.892275 
L 241.488 -122.378625 
L 239.814 -122.86674 
L 238.14 -123.356625 
L 236.466 -123.848286 
L 234.792 -124.341731 
L 233.118 -124.836966 
L 231.444 -125.333997 
L 229.77 -125.832831 
L 228.096 -126.333475 
L 226.422 -126.835933 
L 224.748 -127.340215 
L 223.074 -127.846325 
L 221.4 -128.354271 
L 219.726 -128.864059 
L 218.052 -129.375696 
L 216.378 -129.889189 
L 214.704 -130.404544 
L 213.03 -130.921768 
L 211.356 -131.440868 
L 209.682 -131.961851 
L 208.008 -132.484723 
L 206.334 -133.009491 
L 204.66 -133.536162 
L 202.986 -134.064744 
L 201.312 -134.595242 
L 199.638 -135.127664 
L 197.964 -135.662017 
L 196.29 -136.198308 
L 194.616 -136.736544 
L 192.942 -137.276732 
L 191.268 -137.818878 
L 189.594 -138.362991 
L 187.92 -138.909077 
L 186.246 -139.457143 
L 184.572 -140.007197 
L 182.898 -140.559246 
L 181.224 -141.113296 
L 179.55 -141.669356 
L 177.876 -142.227432 
L 176.202 -142.787532 
L 174.528 -143.349663 
L 172.854 -143.913832 
L 171.18 -144.480048 
L 169.506 -145.048316 
L 167.832 -145.618646 
L 166.158 -146.191043 
L 164.484 -146.765517 
L 162.81 -147.342073 
L 161.136 -147.92072 
L 159.462 -148.501466 
L 157.788 -149.084318 
L 156.114 -149.669283 
L 154.44 -150.256369 
L 152.766 -150.845584 
L 151.092 -151.436936 
L 149.418 -152.030433 
L 147.744 -152.626082 
L 146.07 -153.22389 
L 144.396 -153.823867 
L 142.722 -154.426019 
L 141.048 -155.030355 
L 139.374 -155.636882 
L 137.7 -156.245609 
L 136.026 -156.856543 
L 134.352 -157.469693 
L 132.678 -158.085066 
L 131.004 -158.702671 
L 129.33 -159.322515 
L 127.656 -159.944608 
L 125.982 -160.568956 
L 124.308 -161.195568 
L 122.634 -161.824453 
L 120.96 -162.455619 
L 119.286 -163.089073 
L 117.612 -163.724824 
L 115.938 -164.362882 
L 114.264 -165.003253 
L 112.59 -165.645946 
L 110.916 -166.29097 
L 109.242 -166.938334 
L 107.568 -167.588045 
L 105.894 -168.240112 
L 104.22 -168.894544 
L 102.546 -169.55135 
L 100.872 -170.210538 
L 99.198 -170.872116 
L 97.524 -171.536094 
L 95.85 -172.20248 
L 94.176 -172.871283 
L 92.502 -173.542511 
L 90.828 -174.216174 
L 89.154 -174.892281 
L 87.48 -175.570839 
L 85.806 -176.251859 
L 84.132 -176.935348 
L 82.458 -177.621317 
L 80.784 -178.309774 
L 79.11 -179.000728 
L 77.436 -179.694188 
L 75.762 -180.390163 
L 74.088 -181.088663 
L 72.414 -181.789697 
L 70.74 -182.493273 
L 69.066 -183.199401 
L 67.392 -183.908091 
L 65.718 -184.619352 
L 64.044 -185.333193 
L 62.37 -186.049623 
L 60.696 -186.768652 
L 59.022 -187.49029 
L 57.348 -188.214545 
L 55.674 -188.941428 
L 54 -189.670947 
z
" style="stroke: #a9a9a9"/>
    </defs>
    <g clip-path="url(#paf7a37c0a2)">
     <use xlink:href="#md8fdca9d18" x="0" y="288" style="fill: #a9a9a9; stroke: #a9a9a9"/>
    </g>
   </g>
   <g id="matplotlib.axis_1">
    <g id="xtick_1">
     <g id="line2d_1">
      <defs>
       <path id="m7d2c61dd85" d="M 0 0 
L 0 3.5 
" style="stroke: #000000; stroke-width: 0.8"/>
      </defs>
      <g>
       <use xlink:href="#m7d2c61dd85" x="54" y="252" style="stroke: #000000; stroke-width: 0.8"/>
      </g>
     </g>
     <g id="text_1">
      <!-- 0 -->
      <g transform="translate(50.81875 266.598437)scale(0.1 -0.1)">
       <defs>
        <path id="DejaVuSans-30" d="M 2034 4250 
Q 1547 4250 1301 3770 
Q 1056 3291 1056 2328 
Q 1056 1369 1301 889 
Q 1547 409 2034 409 
Q 2525 409 2770 889 
Q 3016 1369 3016 2328 
Q 3016 3291 2770 3770 
Q 2525 4250 2034 4250 
z
M 2034 4750 
Q 2819 4750 3233 4129 
Q 3647 3509 3647 2328 
Q 3647 1150 3233 529 
Q 2819 -91 2034 -91 
Q 1250 -91 836 529 
Q 422 1150 422 2328 
Q 422 3509 836 4129 
Q 1250 4750 2034 4750 
z
" transform="scale(0.015625)"/>
       </defs>
       <use xlink:href="#DejaVuSans-30"/>
      </g>
     </g>
    </g>
    <g id="xtick_2">
     <g id="line2d_2">
      <g>
       <use xlink:href="#m7d2c61dd85" x="120.96" y="252" style="stroke: #000000; stroke-width: 0.8"/>
      </g>
     </g>
     <g id="text_2">
      <!-- 20 -->
      <g transform="translate(114.5975 266.598437)scale(0.1 -0.1)">
       <defs>
        <path id="DejaVuSans-32" d="M 1228 531 
L 3431 531 
L 3431 0 
L 469 0 
L 469 531 
Q 828 903 1448 1529 
Q 2069 2156 2228 2338 
Q 2531 2678 2651 2914 
Q 2772 3150 2772 3378 
Q 2772 3750 2511 3984 
Q 2250 4219 1831 4219 
Q 1534 4219 1204 4116 
Q 875 4013 500 3803 
L 500 4441 
Q 881 4594 1212 4672 
Q 1544 4750 1819 4750 
Q 2544 4750 2975 4387 
Q 3406 4025 3406 3419 
Q 3406 3131 3298 2873 
Q 3191 2616 2906 2266 
Q 2828 2175 2409 1742 
Q 1991 1309 1228 531 
z
" transform="scale(0.015625)"/>
       </defs>
       <use xlink:href="#DejaVuSans-32"/>
       <use xlink:href="#DejaVuSans-30" x="63.623047"/>
      </g>
     </g>
    </g>
    <g id="xtick_3">
     <g id="line2d_3">
      <g>
       <use xlink:href="#m7d2c61dd85" x="187.92" y="252" style="stroke: #000000; stroke-width: 0.8"/>
      </g>
     </g>
     <g id="text_3">
      <!-- 40 -->
      <g transform="translate(181.5575 266.598437)scale(0.1 -0.1)">
       <defs>
        <path id="DejaVuSans-34" d="M 2419 4116 
L 825 1625 
L 2419 1625 
L 2419 4116 
z
M 2253 4666 
L 3047 4666 
L 3047 1625 
L 3713 1625 
L 3713 1100 
L 3047 1100 
L 3047 0 
L 2419 0 
L 2419 1100 
L 313 1100 
L 313 1709 
L 2253 4666 
z
" transform="scale(0.015625)"/>
       </defs>
       <use xlink:href="#DejaVuSans-34"/>
       <use xlink:href="#DejaVuSans-30" x="63.623047"/>
      </g>
     </g>
    </g>
    <g id="xtick_4">
     <g id="line2d_4">
      <g>
       <use xlink:href="#m7d2c61dd85" x="254.88" y="252" style="stroke: #000000; stroke-width: 0.8"/>
      </g>
     </g>
     <g id="text_4">
      <!-- 60 -->
      <g transform="translate(248.5175 266.598437)scale(0.1 -0.1)">
       <defs>
        <path id="DejaVuSans-36" d="M 2113 2584 
Q 1688 2584 1439 2293 
Q 1191 2003 1191 1497 
Q 1191 994 1439 701 
Q 1688 409 2113 409 
Q 2538 409 2786 701 
Q 3034 994 3034 1497 
Q 3034 2003 2786 2293 
Q 2538 2584 2113 2584 
z
M 3366 4563 
L 3366 3988 
Q 3128 4100 2886 4159 
Q 2644 4219 2406 4219 
Q 1781 4219 1451 3797 
Q 1122 3375 1075 2522 
Q 1259 2794 1537 2939 
Q 1816 3084 2150 3084 
Q 2853 3084 3261 2657 
Q 3669 2231 3669 1497 
Q 3669 778 3244 343 
Q 2819 -91 2113 -91 
Q 1303 -91 875 529 
Q 447 1150 447 2328 
Q 447 3434 972 4092 
Q 1497 4750 2381 4750 
Q 2619 4750 2861 4703 
Q 3103 4656 3366 4563 
z
" transform="scale(0.015625)"/>
       </defs>
       <use xlink:href="#DejaVuSans-36"/>
       <use xlink:href="#DejaVuSans-30" x="63.623047"/>
      </g>
     </g>
    </g>
    <g id="xtick_5">
     <g id="line2d_5">
      <g>
       <use xlink:href="#m7d2c61dd85" x="321.84" y="252" style="stroke: #000000; stroke-width: 0.8"/>
      </g>
     </g>
     <g id="text_5">
      <!-- 80 -->
      <g transform="translate(315.4775 266.598437)scale(0.1 -0.1)">
       <defs>
        <path id="DejaVuSans-38" d="M 2034 2216 
Q 1584 2216 1326 1975 
Q 1069 1734 1069 1313 
Q 1069 891 1326 650 
Q 1584 409 2034 409 
Q 2484 409 2743 651 
Q 3003 894 3003 1313 
Q 3003 1734 2745 1975 
Q 2488 2216 2034 2216 
z
M 1403 2484 
Q 997 2584 770 2862 
Q 544 3141 544 3541 
Q 544 4100 942 4425 
Q 1341 4750 2034 4750 
Q 2731 4750 3128 4425 
Q 3525 4100 3525 3541 
Q 3525 3141 3298 2862 
Q 3072 2584 2669 2484 
Q 3125 2378 3379 2068 
Q 3634 1759 3634 1313 
Q 3634 634 3220 271 
Q 2806 -91 2034 -91 
Q 1263 -91 848 271 
Q 434 634 434 1313 
Q 434 1759 690 2068 
Q 947 2378 1403 2484 
z
M 1172 3481 
Q 1172 3119 1398 2916 
Q 1625 2713 2034 2713 
Q 2441 2713 2670 2916 
Q 2900 3119 2900 3481 
Q 2900 3844 2670 4047 
Q 2441 4250 2034 4250 
Q 1625 4250 1398 4047 
Q 1172 3844 1172 3481 
z
" transform="scale(0.015625)"/>
       </defs>
       <use xlink:href="#DejaVuSans-38"/>
       <use xlink:href="#DejaVuSans-30" x="63.623047"/>
      </g>
     </g>
    </g>
    <g id="xtick_6">
     <g id="line2d_6">
      <g>
       <use xlink:href="#m7d2c61dd85" x="388.8" y="252" style="stroke: #000000; stroke-width: 0.8"/>
      </g>
     </g>
     <g id="text_6">
      <!-- 100 -->
      <g transform="translate(379.25625 266.598437)scale(0.1 -0.1)">
       <defs>
        <path id="DejaVuSans-31" d="M 794 531 
L 1825 531 
L 1825 4091 
L 703 3866 
L 703 4441 
L 1819 4666 
L 2450 4666 
L 2450 531 
L 3481 531 
L 3481 0 
L 794 0 
L 794 531 
z
" transform="scale(0.015625)"/>
       </defs>
       <use xlink:href="#DejaVuSans-31"/>
       <use xlink:href="#DejaVuSans-30" x="63.623047"/>
       <use xlink:href="#DejaVuSans-30" x="127.246094"/>
      </g>
     </g>
    </g>
    <g id="text_7">
     <!-- time (s) -->
     <g transform="translate(202.008594 280.276563)scale(0.1 -0.1)">
      <defs>
       <path id="DejaVuSans-74" d="M 1172 4494 
L 1172 3500 
L 2356 3500 
L 2356 3053 
L 1172 3053 
L 1172 1153 
Q 1172 725 1289 603 
Q 1406 481 1766 481 
L 2356 481 
L 2356 0 
L 1766 0 
Q 1100 0 847 248 
Q 594 497 594 1153 
L 594 3053 
L 172 3053 
L 172 3500 
L 594 3500 
L 594 4494 
L 1172 4494 
z
" transform="scale(0.015625)"/>
       <path id="DejaVuSans-69" d="M 603 3500 
L 1178 3500 
L 1178 0 
L 603 0 
L 603 3500 
z
M 603 4863 
L 1178 4863 
L 1178 4134 
L 603 4134 
L 603 4863 
z
" transform="scale(0.015625)"/>
       <path id="DejaVuSans-6d" d="M 3328 2828 
Q 3544 3216 3844 3400 
Q 4144 3584 4550 3584 
Q 5097 3584 5394 3201 
Q 5691 2819 5691 2113 
L 5691 0 
L 5113 0 
L 5113 2094 
Q 5113 2597 4934 2840 
Q 4756 3084 4391 3084 
Q 3944 3084 3684 2787 
Q 3425 2491 3425 1978 
L 3425 0 
L 2847 0 
L 2847 2094 
Q 2847 2600 2669 2842 
Q 2491 3084 2119 3084 
Q 1678 3084 1418 2786 
Q 1159 2488 1159 1978 
L 1159 0 
L 581 0 
L 581 3500 
L 1159 3500 
L 1159 2956 
Q 1356 3278 1631 3431 
Q 1906 3584 2284 3584 
Q 2666 3584 2933 3390 
Q 3200 3197 3328 2828 
z
" transform="scale(0.015625)"/>
       <path id="DejaVuSans-65" d="M 3597 1894 
L 3597 1613 
L 953 1613 
Q 991 1019 1311 708 
Q 1631 397 2203 397 
Q 2534 397 2845 478 
Q 3156 559 3463 722 
L 3463 178 
Q 3153 47 2828 -22 
Q 2503 -91 2169 -91 
Q 1331 -91 842 396 
Q 353 884 353 1716 
Q 353 2575 817 3079 
Q 1281 3584 2069 3584 
Q 2775 3584 3186 3129 
Q 3597 2675 3597 1894 
z
M 3022 2063 
Q 3016 2534 2758 2815 
Q 2500 3097 2075 3097 
Q 1594 3097 1305 2825 
Q 1016 2553 972 2059 
L 3022 2063 
z
" transform="scale(0.015625)"/>
       <path id="DejaVuSans-20" transform="scale(0.015625)"/>
       <path id="DejaVuSans-28" d="M 1984 4856 
Q 1566 4138 1362 3434 
Q 1159 2731 1159 2009 
Q 1159 1288 1364 580 
Q 1569 -128 1984 -844 
L 1484 -844 
Q 1016 -109 783 600 
Q 550 1309 550 2009 
Q 550 2706 781 3412 
Q 1013 4119 1484 4856 
L 1984 4856 
z
" transform="scale(0.015625)"/>
       <path id="DejaVuSans-73" d="M 2834 3397 
L 2834 2853 
Q 2591 2978 2328 3040 
Q 2066 3103 1784 3103 
Q 1356 3103 1142 2972 
Q 928 2841 928 2578 
Q 928 2378 1081 2264 
Q 1234 2150 1697 2047 
L 1894 2003 
Q 2506 1872 2764 1633 
Q 3022 1394 3022 966 
Q 3022 478 2636 193 
Q 2250 -91 1575 -91 
Q 1294 -91 989 -36 
Q 684 19 347 128 
L 347 722 
Q 666 556 975 473 
Q 1284 391 1588 391 
Q 1994 391 2212 530 
Q 2431 669 2431 922 
Q 2431 1156 2273 1281 
Q 2116 1406 1581 1522 
L 1381 1569 
Q 847 1681 609 1914 
Q 372 2147 372 2553 
Q 372 3047 722 3315 
Q 1072 3584 1716 3584 
Q 2034 3584 2315 3537 
Q 2597 3491 2834 3397 
z
" transform="scale(0.015625)"/>
       <path id="DejaVuSans-29" d="M 513 4856 
L 1013 4856 
Q 1481 4119 1714 3412 
Q 1947 2706 1947 2009 
Q 1947 1309 1714 600 
Q 1481 -109 1013 -844 
L 513 -844 
Q 928 -128 1133 580 
Q 1338 1288 1338 2009 
Q 1338 2731 1133 3434 
Q 928 4138 513 4856 
z
" transform="scale(0.015625)"/>
      </defs>
      <use xlink:href="#DejaVuSans-74"/>
      <use xlink:href="#DejaVuSans-69" x="39.208984"/>
      <use xlink:href="#DejaVuSans-6d" x="66.992188"/>
      <use xlink:href="#DejaVuSans-65" x="164.404297"/>
      <use xlink:href="#DejaVuSans-20" x="225.927734"/>
      <use xlink:href="#DejaVuSans-28" x="257.714844"/>
      <use xlink:href="#DejaVuSans-73" x="296.728516"/>
      <use xlink:href="#DejaVuSans-29" x="348.828125"/>
     </g>
    </g>
   </g>
   <g id="matplotlib.axis_2">
    <g id="ytick_1">
     <g id="line2d_7">
      <defs>
       <path id="m6658872182" d="M 0 0 
L -3.5 0 
" style="stroke: #000000; stroke-width: 0.8"/>
      </defs>
      <g>
       <use xlink:href="#m6658872182" x="54" y="252" style="stroke: #000000; stroke-width: 0.8"/>
      </g>
     </g>
     <g id="text_8">
      <!-- 200 -->
      <g transform="translate(27.9125 255.799219)scale(0.1 -0.1)">
       <use xlink:href="#DejaVuSans-32"/>
       <use xlink:href="#DejaVuSans-30" x="63.623047"/>
       <use xlink:href="#DejaVuSans-30" x="127.246094"/>
      </g>
     </g>
    </g>
    <g id="ytick_2">
     <g id="line2d_8">
      <g>
       <use xlink:href="#m6658872182" x="54" y="220.937143" style="stroke: #000000; stroke-width: 0.8"/>
      </g>
     </g>
     <g id="text_9">
      <!-- 300 -->
      <g transform="translate(27.9125 224.736362)scale(0.1 -0.1)">
       <defs>
        <path id="DejaVuSans-33" d="M 2597 2516 
Q 3050 2419 3304 2112 
Q 3559 1806 3559 1356 
Q 3559 666 3084 287 
Q 2609 -91 1734 -91 
Q 1441 -91 1130 -33 
Q 819 25 488 141 
L 488 750 
Q 750 597 1062 519 
Q 1375 441 1716 441 
Q 2309 441 2620 675 
Q 2931 909 2931 1356 
Q 2931 1769 2642 2001 
Q 2353 2234 1838 2234 
L 1294 2234 
L 1294 2753 
L 1863 2753 
Q 2328 2753 2575 2939 
Q 2822 3125 2822 3475 
Q 2822 3834 2567 4026 
Q 2313 4219 1838 4219 
Q 1578 4219 1281 4162 
Q 984 4106 628 3988 
L 628 4550 
Q 988 4650 1302 4700 
Q 1616 4750 1894 4750 
Q 2613 4750 3031 4423 
Q 3450 4097 3450 3541 
Q 3450 3153 3228 2886 
Q 3006 2619 2597 2516 
z
" transform="scale(0.015625)"/>
       </defs>
       <use xlink:href="#DejaVuSans-33"/>
       <use xlink:href="#DejaVuSans-30" x="63.623047"/>
       <use xlink:href="#DejaVuSans-30" x="127.246094"/>
      </g>
     </g>
    </g>
    <g id="ytick_3">
     <g id="line2d_9">
      <g>
       <use xlink:href="#m6658872182" x="54" y="189.874286" style="stroke: #000000; stroke-width: 0.8"/>
      </g>
     </g>
     <g id="text_10">
      <!-- 400 -->
      <g transform="translate(27.9125 193.673504)scale(0.1 -0.1)">
       <use xlink:href="#DejaVuSans-34"/>
       <use xlink:href="#DejaVuSans-30" x="63.623047"/>
       <use xlink:href="#DejaVuSans-30" x="127.246094"/>
      </g>
     </g>
    </g>
    <g id="ytick_4">
     <g id="line2d_10">
      <g>
       <use xlink:href="#m6658872182" x="54" y="158.811429" style="stroke: #000000; stroke-width: 0.8"/>
      </g>
     </g>
     <g id="text_11">
      <!-- 500 -->
      <g transform="translate(27.9125 162.610647)scale(0.1 -0.1)">
       <defs>
        <path id="DejaVuSans-35" d="M 691 4666 
L 3169 4666 
L 3169 4134 
L 1269 4134 
L 1269 2991 
Q 1406 3038 1543 3061 
Q 1681 3084 1819 3084 
Q 2600 3084 3056 2656 
Q 3513 2228 3513 1497 
Q 3513 744 3044 326 
Q 2575 -91 1722 -91 
Q 1428 -91 1123 -41 
Q 819 9 494 109 
L 494 744 
Q 775 591 1075 516 
Q 1375 441 1709 441 
Q 2250 441 2565 725 
Q 2881 1009 2881 1497 
Q 2881 1984 2565 2268 
Q 2250 2553 1709 2553 
Q 1456 2553 1204 2497 
Q 953 2441 691 2322 
L 691 4666 
z
" transform="scale(0.015625)"/>
       </defs>
       <use xlink:href="#DejaVuSans-35"/>
       <use xlink:href="#DejaVuSans-30" x="63.623047"/>
       <use xlink:href="#DejaVuSans-30" x="127.246094"/>
      </g>
     </g>
    </g>
    <g id="ytick_5">
     <g id="line2d_11">
      <g>
       <use xlink:href="#m6658872182" x="54" y="127.748571" style="stroke: #000000; stroke-width: 0.8"/>
      </g>
     </g>
     <g id="text_12">
      <!-- 600 -->
      <g transform="translate(27.9125 131.54779)scale(0.1 -0.1)">
       <use xlink:href="#DejaVuSans-36"/>
       <use xlink:href="#DejaVuSans-30" x="63.623047"/>
       <use xlink:href="#DejaVuSans-30" x="127.246094"/>
      </g>
     </g>
    </g>
    <g id="ytick_6">
     <g id="line2d_12">
      <g>
       <use xlink:href="#m6658872182" x="54" y="96.685714" style="stroke: #000000; stroke-width: 0.8"/>
      </g>
     </g>
     <g id="text_13">
      <!-- 700 -->
      <g transform="translate(27.9125 100.484933)scale(0.1 -0.1)">
       <defs>
        <path id="DejaVuSans-37" d="M 525 4666 
L 3525 4666 
L 3525 4397 
L 1831 0 
L 1172 0 
L 2766 4134 
L 525 4134 
L 525 4666 
z
" transform="scale(0.015625)"/>
       </defs>
       <use xlink:href="#DejaVuSans-37"/>
       <use xlink:href="#DejaVuSans-30" x="63.623047"/>
       <use xlink:href="#DejaVuSans-30" x="127.246094"/>
      </g>
     </g>
    </g>
    <g id="ytick_7">
     <g id="line2d_13">
      <g>
       <use xlink:href="#m6658872182" x="54" y="65.622857" style="stroke: #000000; stroke-width: 0.8"/>
      </g>
     </g>
     <g id="text_14">
      <!-- 800 -->
      <g transform="translate(27.9125 69.422076)scale(0.1 -0.1)">
       <use xlink:href="#DejaVuSans-38"/>
       <use xlink:href="#DejaVuSans-30" x="63.623047"/>
       <use xlink:href="#DejaVuSans-30" x="127.246094"/>
      </g>
     </g>
    </g>
    <g id="ytick_8">
     <g id="line2d_14">
      <g>
       <use xlink:href="#m6658872182" x="54" y="34.56" style="stroke: #000000; stroke-width: 0.8"/>
      </g>
     </g>
     <g id="text_15">
      <!-- 900 -->
      <g transform="translate(27.9125 38.359219)scale(0.1 -0.1)">
       <defs>
        <path id="DejaVuSans-39" d="M 703 97 
L 703 672 
Q 941 559 1184 500 
Q 1428 441 1663 441 
Q 2288 441 2617 861 
Q 2947 1281 2994 2138 
Q 2813 1869 2534 1725 
Q 2256 1581 1919 1581 
Q 1219 1581 811 2004 
Q 403 2428 403 3163 
Q 403 3881 828 4315 
Q 1253 4750 1959 4750 
Q 2769 4750 3195 4129 
Q 3622 3509 3622 2328 
Q 3622 1225 3098 567 
Q 2575 -91 1691 -91 
Q 1453 -91 1209 -44 
Q 966 3 703 97 
z
M 1959 2075 
Q 2384 2075 2632 2365 
Q 2881 2656 2881 3163 
Q 2881 3666 2632 3958 
Q 2384 4250 1959 4250 
Q 1534 4250 1286 3958 
Q 1038 3666 1038 3163 
Q 1038 2656 1286 2365 
Q 1534 2075 1959 2075 
z
" transform="scale(0.015625)"/>
       </defs>
       <use xlink:href="#DejaVuSans-39"/>
       <use xlink:href="#DejaVuSans-30" x="63.623047"/>
       <use xlink:href="#DejaVuSans-30" x="127.246094"/>
      </g>
     </g>
    </g>
    <g id="text_16">
     <!-- position (m) -->
     <g transform="translate(21.832812 173.445625)rotate(-90)scale(0.1 -0.1)">
      <defs>
       <path id="DejaVuSans-70" d="M 1159 525 
L 1159 -1331 
L 581 -1331 
L 581 3500 
L 1159 3500 
L 1159 2969 
Q 1341 3281 1617 3432 
Q 1894 3584 2278 3584 
Q 2916 3584 3314 3078 
Q 3713 2572 3713 1747 
Q 3713 922 3314 415 
Q 2916 -91 2278 -91 
Q 1894 -91 1617 61 
Q 1341 213 1159 525 
z
M 3116 1747 
Q 3116 2381 2855 2742 
Q 2594 3103 2138 3103 
Q 1681 3103 1420 2742 
Q 1159 2381 1159 1747 
Q 1159 1113 1420 752 
Q 1681 391 2138 391 
Q 2594 391 2855 752 
Q 3116 1113 3116 1747 
z
" transform="scale(0.015625)"/>
       <path id="DejaVuSans-6f" d="M 1959 3097 
Q 1497 3097 1228 2736 
Q 959 2375 959 1747 
Q 959 1119 1226 758 
Q 1494 397 1959 397 
Q 2419 397 2687 759 
Q 2956 1122 2956 1747 
Q 2956 2369 2687 2733 
Q 2419 3097 1959 3097 
z
M 1959 3584 
Q 2709 3584 3137 3096 
Q 3566 2609 3566 1747 
Q 3566 888 3137 398 
Q 2709 -91 1959 -91 
Q 1206 -91 779 398 
Q 353 888 353 1747 
Q 353 2609 779 3096 
Q 1206 3584 1959 3584 
z
" transform="scale(0.015625)"/>
       <path id="DejaVuSans-6e" d="M 3513 2113 
L 3513 0 
L 2938 0 
L 2938 2094 
Q 2938 2591 2744 2837 
Q 2550 3084 2163 3084 
Q 1697 3084 1428 2787 
Q 1159 2491 1159 1978 
L 1159 0 
L 581 0 
L 581 3500 
L 1159 3500 
L 1159 2956 
Q 1366 3272 1645 3428 
Q 1925 3584 2291 3584 
Q 2894 3584 3203 3211 
Q 3513 2838 3513 2113 
z
" transform="scale(0.015625)"/>
      </defs>
      <use xlink:href="#DejaVuSans-70"/>
      <use xlink:href="#DejaVuSans-6f" x="63.476562"/>
      <use xlink:href="#DejaVuSans-73" x="124.658203"/>
      <use xlink:href="#DejaVuSans-69" x="176.757812"/>
      <use xlink:href="#DejaVuSans-74" x="204.541016"/>
      <use xlink:href="#DejaVuSans-69" x="243.75"/>
      <use xlink:href="#DejaVuSans-6f" x="271.533203"/>
      <use xlink:href="#DejaVuSans-6e" x="332.714844"/>
      <use xlink:href="#DejaVuSans-20" x="396.09375"/>
      <use xlink:href="#DejaVuSans-28" x="427.880859"/>
      <use xlink:href="#DejaVuSans-6d" x="466.894531"/>
      <use xlink:href="#DejaVuSans-29" x="564.306641"/>
     </g>
    </g>
   </g>
   <g id="line2d_15">
    <path d="M 54 89.149607 
L 70.74 96.472384 
L 87.48 103.531792 
L 104.22 110.337303 
L 120.96 116.898049 
L 137.7 123.222833 
L 154.44 129.320141 
L 171.18 135.198156 
L 187.92 140.864763 
L 204.66 146.327567 
L 224.748 152.624212 
L 244.836 158.650089 
L 264.924 164.41684 
L 285.012 169.935608 
L 305.1 175.217057 
L 325.188 180.271393 
L 345.276 185.108382 
L 365.364 189.73737 
L 388.8 194.886877 
L 412.236 199.778975 
L 433 203.908224 
L 433 203.908224 
" clip-path="url(#paf7a37c0a2)" style="fill: none; stroke-dasharray: 5.55,2.4; stroke-dashoffset: 0; stroke: #1f77b4; stroke-width: 1.5"/>
   </g>
   <g id="line2d_16">
    <defs>
     <path id="mb3f6d3617c" d="M 0 1.5 
C 0.397805 1.5 0.77937 1.341951 1.06066 1.06066 
C 1.341951 0.77937 1.5 0.397805 1.5 0 
C 1.5 -0.397805 1.341951 -0.77937 1.06066 -1.06066 
C 0.77937 -1.341951 0.397805 -1.5 0 -1.5 
C -0.397805 -1.5 -0.77937 -1.341951 -1.06066 -1.06066 
C -1.341951 -0.77937 -1.5 -0.397805 -1.5 0 
C -1.5 0.397805 -1.341951 0.77937 -1.06066 1.06066 
C -0.77937 1.341951 -0.397805 1.5 0 1.5 
z
" style="stroke: #ff7f0e"/>
    </defs>
    <g clip-path="url(#paf7a37c0a2)">
     <use xlink:href="#mb3f6d3617c" x="54" y="89.668615" style="fill: #ff7f0e; stroke: #ff7f0e"/>
     <use xlink:href="#mb3f6d3617c" x="57.348" y="94.846793" style="fill: #ff7f0e; stroke: #ff7f0e"/>
     <use xlink:href="#mb3f6d3617c" x="60.696" y="94.498889" style="fill: #ff7f0e; stroke: #ff7f0e"/>
     <use xlink:href="#mb3f6d3617c" x="64.044" y="96.17939" style="fill: #ff7f0e; stroke: #ff7f0e"/>
     <use xlink:href="#mb3f6d3617c" x="67.392" y="97.844359" style="fill: #ff7f0e; stroke: #ff7f0e"/>
     <use xlink:href="#mb3f6d3617c" x="70.74" y="88.472695" style="fill: #ff7f0e; stroke: #ff7f0e"/>
     <use xlink:href="#mb3f6d3617c" x="74.088" y="98.565017" style="fill: #ff7f0e; stroke: #ff7f0e"/>
     <use xlink:href="#mb3f6d3617c" x="77.436" y="106.321413" style="fill: #ff7f0e; stroke: #ff7f0e"/>
     <use xlink:href="#mb3f6d3617c" x="80.784" y="93.343351" style="fill: #ff7f0e; stroke: #ff7f0e"/>
     <use xlink:href="#mb3f6d3617c" x="84.132" y="94.846793" style="fill: #ff7f0e; stroke: #ff7f0e"/>
     <use xlink:href="#mb3f6d3617c" x="87.48" y="98.835264" style="fill: #ff7f0e; stroke: #ff7f0e"/>
     <use xlink:href="#mb3f6d3617c" x="90.828" y="105.513778" style="fill: #ff7f0e; stroke: #ff7f0e"/>
     <use xlink:href="#mb3f6d3617c" x="94.176" y="102.31741" style="fill: #ff7f0e; stroke: #ff7f0e"/>
     <use xlink:href="#mb3f6d3617c" x="97.524" y="108.29701" style="fill: #ff7f0e; stroke: #ff7f0e"/>
     <use xlink:href="#mb3f6d3617c" x="100.872" y="111.64248" style="fill: #ff7f0e; stroke: #ff7f0e"/>
     <use xlink:href="#mb3f6d3617c" x="104.22" y="108.287691" style="fill: #ff7f0e; stroke: #ff7f0e"/>
     <use xlink:href="#mb3f6d3617c" x="107.568" y="111.210706" style="fill: #ff7f0e; stroke: #ff7f0e"/>
     <use xlink:href="#mb3f6d3617c" x="110.916" y="108.057826" style="fill: #ff7f0e; stroke: #ff7f0e"/>
     <use xlink:href="#mb3f6d3617c" x="114.264" y="113.450338" style="fill: #ff7f0e; stroke: #ff7f0e"/>
     <use xlink:href="#mb3f6d3617c" x="117.612" y="113.695735" style="fill: #ff7f0e; stroke: #ff7f0e"/>
     <use xlink:href="#mb3f6d3617c" x="120.96" y="110.480729" style="fill: #ff7f0e; stroke: #ff7f0e"/>
     <use xlink:href="#mb3f6d3617c" x="124.308" y="125.661147" style="fill: #ff7f0e; stroke: #ff7f0e"/>
     <use xlink:href="#mb3f6d3617c" x="127.656" y="115.752096" style="fill: #ff7f0e; stroke: #ff7f0e"/>
     <use xlink:href="#mb3f6d3617c" x="131.004" y="114.568601" style="fill: #ff7f0e; stroke: #ff7f0e"/>
     <use xlink:href="#mb3f6d3617c" x="134.352" y="120.523351" style="fill: #ff7f0e; stroke: #ff7f0e"/>
     <use xlink:href="#mb3f6d3617c" x="137.7" y="127.015488" style="fill: #ff7f0e; stroke: #ff7f0e"/>
     <use xlink:href="#mb3f6d3617c" x="141.048" y="126.990638" style="fill: #ff7f0e; stroke: #ff7f0e"/>
     <use xlink:href="#mb3f6d3617c" x="144.396" y="125.185886" style="fill: #ff7f0e; stroke: #ff7f0e"/>
     <use xlink:href="#mb3f6d3617c" x="147.744" y="125.55864" style="fill: #ff7f0e; stroke: #ff7f0e"/>
     <use xlink:href="#mb3f6d3617c" x="151.092" y="128.304597" style="fill: #ff7f0e; stroke: #ff7f0e"/>
     <use xlink:href="#mb3f6d3617c" x="154.44" y="131.230718" style="fill: #ff7f0e; stroke: #ff7f0e"/>
     <use xlink:href="#mb3f6d3617c" x="157.788" y="128.612119" style="fill: #ff7f0e; stroke: #ff7f0e"/>
     <use xlink:href="#mb3f6d3617c" x="161.136" y="129.12155" style="fill: #ff7f0e; stroke: #ff7f0e"/>
     <use xlink:href="#mb3f6d3617c" x="164.484" y="137.204105" style="fill: #ff7f0e; stroke: #ff7f0e"/>
     <use xlink:href="#mb3f6d3617c" x="167.832" y="131.07851" style="fill: #ff7f0e; stroke: #ff7f0e"/>
     <use xlink:href="#mb3f6d3617c" x="171.18" y="138.328581" style="fill: #ff7f0e; stroke: #ff7f0e"/>
     <use xlink:href="#mb3f6d3617c" x="174.528" y="142.646318" style="fill: #ff7f0e; stroke: #ff7f0e"/>
     <use xlink:href="#mb3f6d3617c" x="177.876" y="134.952048" style="fill: #ff7f0e; stroke: #ff7f0e"/>
     <use xlink:href="#mb3f6d3617c" x="181.224" y="144.239842" style="fill: #ff7f0e; stroke: #ff7f0e"/>
     <use xlink:href="#mb3f6d3617c" x="184.572" y="141.804514" style="fill: #ff7f0e; stroke: #ff7f0e"/>
     <use xlink:href="#mb3f6d3617c" x="187.92" y="137.788087" style="fill: #ff7f0e; stroke: #ff7f0e"/>
     <use xlink:href="#mb3f6d3617c" x="191.268" y="147.131794" style="fill: #ff7f0e; stroke: #ff7f0e"/>
     <use xlink:href="#mb3f6d3617c" x="194.616" y="149.784562" style="fill: #ff7f0e; stroke: #ff7f0e"/>
     <use xlink:href="#mb3f6d3617c" x="197.964" y="145.749497" style="fill: #ff7f0e; stroke: #ff7f0e"/>
     <use xlink:href="#mb3f6d3617c" x="201.312" y="149.595079" style="fill: #ff7f0e; stroke: #ff7f0e"/>
     <use xlink:href="#mb3f6d3617c" x="204.66" y="149.458402" style="fill: #ff7f0e; stroke: #ff7f0e"/>
     <use xlink:href="#mb3f6d3617c" x="208.008" y="154.537179" style="fill: #ff7f0e; stroke: #ff7f0e"/>
     <use xlink:href="#mb3f6d3617c" x="211.356" y="153.878647" style="fill: #ff7f0e; stroke: #ff7f0e"/>
     <use xlink:href="#mb3f6d3617c" x="214.704" y="146.818059" style="fill: #ff7f0e; stroke: #ff7f0e"/>
     <use xlink:href="#mb3f6d3617c" x="218.052" y="154.810533" style="fill: #ff7f0e; stroke: #ff7f0e"/>
     <use xlink:href="#mb3f6d3617c" x="221.4" y="156.546946" style="fill: #ff7f0e; stroke: #ff7f0e"/>
     <use xlink:href="#mb3f6d3617c" x="224.748" y="151.62659" style="fill: #ff7f0e; stroke: #ff7f0e"/>
     <use xlink:href="#mb3f6d3617c" x="228.096" y="148.784338" style="fill: #ff7f0e; stroke: #ff7f0e"/>
     <use xlink:href="#mb3f6d3617c" x="231.444" y="156.590434" style="fill: #ff7f0e; stroke: #ff7f0e"/>
     <use xlink:href="#mb3f6d3617c" x="234.792" y="151.666971" style="fill: #ff7f0e; stroke: #ff7f0e"/>
     <use xlink:href="#mb3f6d3617c" x="238.14" y="156.289125" style="fill: #ff7f0e; stroke: #ff7f0e"/>
     <use xlink:href="#mb3f6d3617c" x="241.488" y="154.537179" style="fill: #ff7f0e; stroke: #ff7f0e"/>
     <use xlink:href="#mb3f6d3617c" x="244.836" y="158.531863" style="fill: #ff7f0e; stroke: #ff7f0e"/>
     <use xlink:href="#mb3f6d3617c" x="248.184" y="155.310645" style="fill: #ff7f0e; stroke: #ff7f0e"/>
     <use xlink:href="#mb3f6d3617c" x="251.532" y="157.643465" style="fill: #ff7f0e; stroke: #ff7f0e"/>
     <use xlink:href="#mb3f6d3617c" x="254.88" y="157.975838" style="fill: #ff7f0e; stroke: #ff7f0e"/>
     <use xlink:href="#mb3f6d3617c" x="258.228" y="168.661461" style="fill: #ff7f0e; stroke: #ff7f0e"/>
     <use xlink:href="#mb3f6d3617c" x="261.576" y="167.28227" style="fill: #ff7f0e; stroke: #ff7f0e"/>
     <use xlink:href="#mb3f6d3617c" x="264.924" y="160.097431" style="fill: #ff7f0e; stroke: #ff7f0e"/>
     <use xlink:href="#mb3f6d3617c" x="268.272" y="162.63216" style="fill: #ff7f0e; stroke: #ff7f0e"/>
     <use xlink:href="#mb3f6d3617c" x="271.62" y="167.136274" style="fill: #ff7f0e; stroke: #ff7f0e"/>
     <use xlink:href="#mb3f6d3617c" x="274.968" y="166.990279" style="fill: #ff7f0e; stroke: #ff7f0e"/>
     <use xlink:href="#mb3f6d3617c" x="278.316" y="167.912846" style="fill: #ff7f0e; stroke: #ff7f0e"/>
     <use xlink:href="#mb3f6d3617c" x="281.664" y="171.568944" style="fill: #ff7f0e; stroke: #ff7f0e"/>
     <use xlink:href="#mb3f6d3617c" x="285.012" y="174.454683" style="fill: #ff7f0e; stroke: #ff7f0e"/>
     <use xlink:href="#mb3f6d3617c" x="288.36" y="164.452443" style="fill: #ff7f0e; stroke: #ff7f0e"/>
     <use xlink:href="#mb3f6d3617c" x="291.708" y="170.43515" style="fill: #ff7f0e; stroke: #ff7f0e"/>
     <use xlink:href="#mb3f6d3617c" x="295.056" y="178.937054" style="fill: #ff7f0e; stroke: #ff7f0e"/>
     <use xlink:href="#mb3f6d3617c" x="298.404" y="178.486642" style="fill: #ff7f0e; stroke: #ff7f0e"/>
     <use xlink:href="#mb3f6d3617c" x="301.752" y="174.793269" style="fill: #ff7f0e; stroke: #ff7f0e"/>
     <use xlink:href="#mb3f6d3617c" x="305.1" y="176.386793" style="fill: #ff7f0e; stroke: #ff7f0e"/>
     <use xlink:href="#mb3f6d3617c" x="308.448" y="179.219726" style="fill: #ff7f0e; stroke: #ff7f0e"/>
     <use xlink:href="#mb3f6d3617c" x="311.796" y="175.970551" style="fill: #ff7f0e; stroke: #ff7f0e"/>
     <use xlink:href="#mb3f6d3617c" x="315.144" y="174.479534" style="fill: #ff7f0e; stroke: #ff7f0e"/>
     <use xlink:href="#mb3f6d3617c" x="318.492" y="174.342857" style="fill: #ff7f0e; stroke: #ff7f0e"/>
     <use xlink:href="#mb3f6d3617c" x="321.84" y="179.657712" style="fill: #ff7f0e; stroke: #ff7f0e"/>
     <use xlink:href="#mb3f6d3617c" x="325.188" y="177.191321" style="fill: #ff7f0e; stroke: #ff7f0e"/>
     <use xlink:href="#mb3f6d3617c" x="328.536" y="178.076613" style="fill: #ff7f0e; stroke: #ff7f0e"/>
     <use xlink:href="#mb3f6d3617c" x="331.884" y="179.524142" style="fill: #ff7f0e; stroke: #ff7f0e"/>
     <use xlink:href="#mb3f6d3617c" x="335.232" y="189.085289" style="fill: #ff7f0e; stroke: #ff7f0e"/>
     <use xlink:href="#mb3f6d3617c" x="338.58" y="183.872942" style="fill: #ff7f0e; stroke: #ff7f0e"/>
     <use xlink:href="#mb3f6d3617c" x="341.928" y="190.125895" style="fill: #ff7f0e; stroke: #ff7f0e"/>
     <use xlink:href="#mb3f6d3617c" x="345.276" y="184.556325" style="fill: #ff7f0e; stroke: #ff7f0e"/>
     <use xlink:href="#mb3f6d3617c" x="348.624" y="181.437614" style="fill: #ff7f0e; stroke: #ff7f0e"/>
     <use xlink:href="#mb3f6d3617c" x="351.972" y="180.633086" style="fill: #ff7f0e; stroke: #ff7f0e"/>
     <use xlink:href="#mb3f6d3617c" x="355.32" y="186.047342" style="fill: #ff7f0e; stroke: #ff7f0e"/>
     <use xlink:href="#mb3f6d3617c" x="358.668" y="185.227282" style="fill: #ff7f0e; stroke: #ff7f0e"/>
     <use xlink:href="#mb3f6d3617c" x="362.016" y="186.14053" style="fill: #ff7f0e; stroke: #ff7f0e"/>
     <use xlink:href="#mb3f6d3617c" x="365.364" y="187.237049" style="fill: #ff7f0e; stroke: #ff7f0e"/>
     <use xlink:href="#mb3f6d3617c" x="368.712" y="185.106137" style="fill: #ff7f0e; stroke: #ff7f0e"/>
     <use xlink:href="#mb3f6d3617c" x="372.06" y="190.68192" style="fill: #ff7f0e; stroke: #ff7f0e"/>
     <use xlink:href="#mb3f6d3617c" x="375.408" y="196.63667" style="fill: #ff7f0e; stroke: #ff7f0e"/>
     <use xlink:href="#mb3f6d3617c" x="378.756" y="196.487568" style="fill: #ff7f0e; stroke: #ff7f0e"/>
     <use xlink:href="#mb3f6d3617c" x="382.104" y="194.561671" style="fill: #ff7f0e; stroke: #ff7f0e"/>
     <use xlink:href="#mb3f6d3617c" x="385.452" y="197.823271" style="fill: #ff7f0e; stroke: #ff7f0e"/>
     <use xlink:href="#mb3f6d3617c" x="388.8" y="189.681696" style="fill: #ff7f0e; stroke: #ff7f0e"/>
     <use xlink:href="#mb3f6d3617c" x="392.148" y="199.050254" style="fill: #ff7f0e; stroke: #ff7f0e"/>
     <use xlink:href="#mb3f6d3617c" x="395.496" y="190.539031" style="fill: #ff7f0e; stroke: #ff7f0e"/>
     <use xlink:href="#mb3f6d3617c" x="398.844" y="196.875854" style="fill: #ff7f0e; stroke: #ff7f0e"/>
     <use xlink:href="#mb3f6d3617c" x="402.192" y="202.939323" style="fill: #ff7f0e; stroke: #ff7f0e"/>
     <use xlink:href="#mb3f6d3617c" x="405.54" y="201.861442" style="fill: #ff7f0e; stroke: #ff7f0e"/>
     <use xlink:href="#mb3f6d3617c" x="408.888" y="202.460955" style="fill: #ff7f0e; stroke: #ff7f0e"/>
     <use xlink:href="#mb3f6d3617c" x="412.236" y="195.704784" style="fill: #ff7f0e; stroke: #ff7f0e"/>
     <use xlink:href="#mb3f6d3617c" x="415.584" y="203.18472" style="fill: #ff7f0e; stroke: #ff7f0e"/>
     <use xlink:href="#mb3f6d3617c" x="418.932" y="197.320053" style="fill: #ff7f0e; stroke: #ff7f0e"/>
     <use xlink:href="#mb3f6d3617c" x="422.28" y="201.438987" style="fill: #ff7f0e; stroke: #ff7f0e"/>
     <use xlink:href="#mb3f6d3617c" x="425.628" y="199.83925" style="fill: #ff7f0e; stroke: #ff7f0e"/>
     <use xlink:href="#mb3f6d3617c" x="428.976" y="201.932887" style="fill: #ff7f0e; stroke: #ff7f0e"/>
     <use xlink:href="#mb3f6d3617c" x="432.324" y="204.076224" style="fill: #ff7f0e; stroke: #ff7f0e"/>
     <use xlink:href="#mb3f6d3617c" x="435.672" y="208.002569" style="fill: #ff7f0e; stroke: #ff7f0e"/>
     <use xlink:href="#mb3f6d3617c" x="439.02" y="203.678619" style="fill: #ff7f0e; stroke: #ff7f0e"/>
     <use xlink:href="#mb3f6d3617c" x="442.368" y="207.813086" style="fill: #ff7f0e; stroke: #ff7f0e"/>
     <use xlink:href="#mb3f6d3617c" x="445.716" y="209.232658" style="fill: #ff7f0e; stroke: #ff7f0e"/>
     <use xlink:href="#mb3f6d3617c" x="449.064" y="202.697033" style="fill: #ff7f0e; stroke: #ff7f0e"/>
     <use xlink:href="#mb3f6d3617c" x="452.412" y="202.77469" style="fill: #ff7f0e; stroke: #ff7f0e"/>
     <use xlink:href="#mb3f6d3617c" x="455.76" y="203.187826" style="fill: #ff7f0e; stroke: #ff7f0e"/>
     <use xlink:href="#mb3f6d3617c" x="459.108" y="204.110393" style="fill: #ff7f0e; stroke: #ff7f0e"/>
     <use xlink:href="#mb3f6d3617c" x="462.456" y="205.616942" style="fill: #ff7f0e; stroke: #ff7f0e"/>
     <use xlink:href="#mb3f6d3617c" x="465.804" y="211.44744" style="fill: #ff7f0e; stroke: #ff7f0e"/>
     <use xlink:href="#mb3f6d3617c" x="469.152" y="206.912263" style="fill: #ff7f0e; stroke: #ff7f0e"/>
     <use xlink:href="#mb3f6d3617c" x="472.5" y="210.990816" style="fill: #ff7f0e; stroke: #ff7f0e"/>
     <use xlink:href="#mb3f6d3617c" x="475.848" y="212.780037" style="fill: #ff7f0e; stroke: #ff7f0e"/>
     <use xlink:href="#mb3f6d3617c" x="479.196" y="214.702827" style="fill: #ff7f0e; stroke: #ff7f0e"/>
     <use xlink:href="#mb3f6d3617c" x="482.544" y="217.312107" style="fill: #ff7f0e; stroke: #ff7f0e"/>
     <use xlink:href="#mb3f6d3617c" x="485.892" y="216.200057" style="fill: #ff7f0e; stroke: #ff7f0e"/>
     <use xlink:href="#mb3f6d3617c" x="489.24" y="209.701707" style="fill: #ff7f0e; stroke: #ff7f0e"/>
     <use xlink:href="#mb3f6d3617c" x="492.588" y="214.95133" style="fill: #ff7f0e; stroke: #ff7f0e"/>
     <use xlink:href="#mb3f6d3617c" x="495.936" y="216.784039" style="fill: #ff7f0e; stroke: #ff7f0e"/>
     <use xlink:href="#mb3f6d3617c" x="499.284" y="213.618734" style="fill: #ff7f0e; stroke: #ff7f0e"/>
     <use xlink:href="#mb3f6d3617c" x="502.632" y="217.722137" style="fill: #ff7f0e; stroke: #ff7f0e"/>
     <use xlink:href="#mb3f6d3617c" x="505.98" y="211.108855" style="fill: #ff7f0e; stroke: #ff7f0e"/>
     <use xlink:href="#mb3f6d3617c" x="509.328" y="218.812443" style="fill: #ff7f0e; stroke: #ff7f0e"/>
     <use xlink:href="#mb3f6d3617c" x="512.676" y="217.725243" style="fill: #ff7f0e; stroke: #ff7f0e"/>
     <use xlink:href="#mb3f6d3617c" x="516.024" y="222.763639" style="fill: #ff7f0e; stroke: #ff7f0e"/>
     <use xlink:href="#mb3f6d3617c" x="519.372" y="221.421723" style="fill: #ff7f0e; stroke: #ff7f0e"/>
     <use xlink:href="#mb3f6d3617c" x="522.72" y="223.776288" style="fill: #ff7f0e; stroke: #ff7f0e"/>
     <use xlink:href="#mb3f6d3617c" x="526.068" y="224.397545" style="fill: #ff7f0e; stroke: #ff7f0e"/>
     <use xlink:href="#mb3f6d3617c" x="529.416" y="220.331417" style="fill: #ff7f0e; stroke: #ff7f0e"/>
     <use xlink:href="#mb3f6d3617c" x="532.764" y="218.635385" style="fill: #ff7f0e; stroke: #ff7f0e"/>
     <use xlink:href="#mb3f6d3617c" x="536.112" y="218.473858" style="fill: #ff7f0e; stroke: #ff7f0e"/>
     <use xlink:href="#mb3f6d3617c" x="539.46" y="222.474754" style="fill: #ff7f0e; stroke: #ff7f0e"/>
     <use xlink:href="#mb3f6d3617c" x="542.808" y="227.18699" style="fill: #ff7f0e; stroke: #ff7f0e"/>
     <use xlink:href="#mb3f6d3617c" x="546.156" y="227.152821" style="fill: #ff7f0e; stroke: #ff7f0e"/>
     <use xlink:href="#mb3f6d3617c" x="549.504" y="223.714162" style="fill: #ff7f0e; stroke: #ff7f0e"/>
    </g>
   </g>
   <g id="line2d_17">
    <path d="M 0 0 
" clip-path="url(#paf7a37c0a2)" style="fill: none; stroke-dasharray: 9.6,2.4,1.5,2.4; stroke-dashoffset: 0; stroke: #008000; stroke-width: 1.5"/>
   </g>
   <g id="patch_3">
    <path d="M 54 252 
L 54 34.56 
" style="fill: none; stroke: #000000; stroke-width: 0.8; stroke-linejoin: miter; stroke-linecap: square"/>
   </g>
   <g id="patch_4">
    <path d="M 388.8 252 
L 388.8 34.56 
" style="fill: none; stroke: #000000; stroke-width: 0.8; stroke-linejoin: miter; stroke-linecap: square"/>
   </g>
   <g id="patch_5">
    <path d="M 54 252 
L 388.8 252 
" style="fill: none; stroke: #000000; stroke-width: 0.8; stroke-linejoin: miter; stroke-linecap: square"/>
   </g>
   <g id="patch_6">
    <path d="M 54 34.56 
L 388.8 34.56 
" style="fill: none; stroke: #000000; stroke-width: 0.8; stroke-linejoin: miter; stroke-linecap: square"/>
   </g>
  </g>
 </g>
 <defs>
  <clipPath id="paf7a37c0a2">
   <rect x="54" y="34.56" width="334.8" height="217.44"/>
  </clipPath>
 </defs>
</svg>
